<?xml version="1.0" encoding="UTF-8" standalone="no"?>
<svg
   xmlns:dc="http://purl.org/dc/elements/1.1/"
   xmlns:cc="http://creativecommons.org/ns#"
   xmlns:rdf="http://www.w3.org/1999/02/22-rdf-syntax-ns#"
   xmlns:svg="http://www.w3.org/2000/svg"
   xmlns="http://www.w3.org/2000/svg"
   xmlns:sodipodi="http://sodipodi.sourceforge.net/DTD/sodipodi-0.dtd"
   xmlns:inkscape="http://www.inkscape.org/namespaces/inkscape"
   inkscape:version="1.0 (4035a4fb49, 2020-05-01)"
   sodipodi:docname="jollygood.svg"
   version="1.0"
   viewBox="0 0 283.29 283.29"
   id="svg2474">
  <defs
     id="defs9" />
  <sodipodi:namedview
     inkscape:document-rotation="0"
     inkscape:current-layer="svg2474"
     inkscape:window-maximized="1"
     inkscape:window-y="32"
     inkscape:window-x="2070"
     inkscape:cy="111.59"
     inkscape:cx="-29.04986"
     inkscape:zoom="1.0574425"
     showgrid="false"
     id="namedview7"
     inkscape:window-height="1020"
     inkscape:window-width="1499"
     inkscape:pageshadow="2"
     inkscape:pageopacity="0"
     guidetolerance="10"
     gridtolerance="10"
     objecttolerance="10"
     borderopacity="1"
     bordercolor="#666666"
     pagecolor="#ffffff" />
  <g
     style="fill:#d45500;fill-opacity:1;stroke:#0066ff;stroke-opacity:0"
     transform="translate(-189.08,-166.89)"
     id="layer3">
    <path
       inkscape:connector-curvature="0"
       style="fill:#d45500;fill-opacity:1;fill-rule:evenodd;stroke:#0066ff;stroke-width:1px;stroke-opacity:0"
       d="m 435.33,270.12 c 7.8092,-0.71229 14.903,3.1016 17.953,15.454 6.972,28.235 -48.839,50.358 -48.839,50.358 0,0 -2.5128,-0.0628 -5.4394,1.7542 -0.0578,0.0359 -0.12129,0.0711 -0.17938,0.10843 1.3837,-19.38 4.9097,-32.31 6.2475,-47.842 0.78759,0.088 1.9287,-0.7976 3.6346,-3.1452 5.3572,-7.3726 16.583,-15.772 26.623,-16.688 z M 273.5,200.77 c -46.239,3.6358 -85.161,14.565 -83.466,34.96 0.34031,0.54476 0.71206,1.0538 1.0984,1.5733 -3.4749,5.7653 -0.2903,15.82 1.4885,22.798 8.9909,25.545 22.392,49.593 27.651,76.404 4.6876,20.371 8.1554,43.067 23.252,58.731 3.2072,3.0701 6.7372,5.3343 10.506,7.0556 12.268,17.169 38.649,21.36 68.506,18.38 30.315,-3.0256 40.149,-12.057 45.142,-23.037 0.045,-0.099 0.0368,-0.197 0.0398,-0.28536 5.8842,-3.0795 11.428,-6.8509 16.51,-11.454 4.6193,-3.8169 7.8684,-8.668 10.087,-14.135 2.9904,1.1885 6.4383,-1.366 6.6988,-5.5862 0.51038,-8.2683 16.126,-11.304 53.952,-37.853 37.826,-26.548 0.33138,-68.779 0.33138,-68.779 0,0 0.63271,0.56012 -0.0451,-0.56069 1.1628,-6.2917 -1.5424,-8.7791 -7.2578,-8.3827 -8.3534,0.57938 -23.152,7.3372 -41.823,17.534 -0.049,0.0563 -0.0948,0.11164 -0.14323,0.16827 1.4986,-9.8898 5.0711,-19.4 11.283,-27.336 2.805,-4.0706 4.4135,-16.589 1.6046,-15.522 7.2016,-19.5 -77.09,-30.045 -145.41,-24.673 z"
       id="path3814" />
  </g>
  <metadata
     id="metadata4">
    <rdf:RDF>
      <cc:Work>
        <dc:format>image/svg+xml</dc:format>
        <dc:type
           rdf:resource="http://purl.org/dc/dcmitype/StillImage" />
        <cc:license
           rdf:resource="" />
        <dc:publisher>
          <cc:Agent
             rdf:about="http://openclipart.org/">
            <dc:title>Openclipart</dc:title>
          </cc:Agent>
        </dc:publisher>
        <dc:title></dc:title>
        <dc:date>2013-08-10T13:05:14</dc:date>
        <dc:description>A Jolly Good Cuppa</dc:description>
        <dc:creator>
          <cc:Agent>
            <dc:title>Rupert Carmichael</dc:title>
          </cc:Agent>
        </dc:creator>
        <dc:subject>
          <rdf:Bag>
            <rdf:li>Cup</rdf:li>
            <rdf:li>crockery set</rdf:li>
            <rdf:li>dish</rdf:li>
            <rdf:li>dishes</rdf:li>
            <rdf:li>service</rdf:li>
            <rdf:li>set</rdf:li>
            <rdf:li>silhouette</rdf:li>
          </rdf:Bag>
        </dc:subject>
      </cc:Work>
    </rdf:RDF>
  </metadata>
</svg>
